
<svg version="1.1" xmlns="http://www.w3.org/2000/svg" xmlns:xlink="http://www.w3.org/1999/xlink" x="0px" y="0px" viewBox="0 0 1000 1000" enable-background="new 0 0 1000 1000" xml:space="preserve">
<g><g transform="translate(0.000000,512.000000) scale(0.100000,-0.100000)">
  <path fill="#404040" d="M8601,5010.3c-210.8-53.6-160.9-7.7-2774.3-2621L3324.6-114.8l-348.7-890.9c-312.3-791.3-350.6-900.5-341-975.2c15.3-141.8,124.5-249.1,264.4-264.4c74.7-7.7,187.8,30.7,975.2,341l890.9,348.7L7269.4,946.6c2406.4,2404.5,2506,2507.9,2567.3,2636.3c57.5,120.7,63.2,151.4,63.2,306.6c-1.9,285.5-34.5,342.9-390.9,705c-356.3,362.1-440.7,413.8-684,427.3C8740.9,5025.6,8641.2,5019.8,8601,5010.3z M9060.8,4180.7c174.3-172.4,235.7-247.2,235.7-281.7c0-38.3-523-570.9-2440.9-2488.8l-2439-2439l-456-180.1c-251-99.6-459.8-178.2-463.7-174.3c-3.8,3.8,74.7,212.7,174.4,463.7l180.1,456l2439,2439c1917.8,1917.8,2450.5,2440.9,2488.8,2440.9C8813.7,4416.3,8888.4,4355,9060.8,4180.7z"/>
  <path fill="#404040" d="M1058,3772.6c-339.1-72.8-666.7-327.6-821.9-639.9c-143.7-295-136-63.2-136-3621.1c0-3557.9-7.7-3326,136-3621.1c155.2-314.2,488.6-570.9,831.5-641.8c203.1-42.2,6449-42.2,6646.3,0c348.7,72.8,672.5,323.8,831.5,641.8c143.7,289.3,137.9,128.4,137.9,3008v2576.9l-306.5-306.5l-306.6-304.6l-3.8-2291.4l-5.8-2289.5l-51.7-97.7c-76.6-145.6-134.1-205-268.2-277.8l-120.7-65.1H4391.7H1163.4l-95.8,47.9c-122.6,59.4-237.6,174.3-297,297l-47.9,95.8v3228.3v3228.3l47.9,95.8c59.4,122.6,174.4,237.6,297,297l95.8,47.9l2289.5,5.7l2291.4,3.8l304.6,306.6l306.5,306.5l-2586.5-1.9C1632.8,3801.3,1161.5,3795.6,1058,3772.6z"/></g></g>
</svg>