<?xml version="1.0" encoding="UTF-8" standalone="no"?>
<svg
   viewBox="0 0 138 76"
   version="1.1"
   id="svg46"
   sodipodi:docname="theme-lightmode.svg"
   inkscape:version="1.1.2 (b8e25be833, 2022-02-05)"
   xmlns:inkscape="http://www.inkscape.org/namespaces/inkscape"
   xmlns:sodipodi="http://sodipodi.sourceforge.net/DTD/sodipodi-0.dtd"
   xmlns="http://www.w3.org/2000/svg"
   xmlns:svg="http://www.w3.org/2000/svg">
  <defs
     id="defs50" />
  <sodipodi:namedview
     id="namedview48"
     pagecolor="#ffffff"
     bordercolor="#666666"
     borderopacity="1.0"
     inkscape:pageshadow="2"
     inkscape:pageopacity="0.0"
     inkscape:pagecheckerboard="0"
     showgrid="false"
     inkscape:zoom="2.710576"
     inkscape:cx="66.591012"
     inkscape:cy="9.2231319"
     inkscape:window-width="1920"
     inkscape:window-height="1009"
     inkscape:window-x="-8"
     inkscape:window-y="-8"
     inkscape:window-maximized="1"
     inkscape:current-layer="svg46" />
  <path
     d="M0 0h138v76H0V0Z"
     fill="#fff"
     id="path2"
     style="fill:#ffffff;fill-opacity:1;stroke-width:0.6;stroke-miterlimit:4;stroke-dasharray:none" />
  <rect
     x="7"
     y="9"
     width="23"
     height="3"
     rx="1.4996977"
     fill="#1A73E8"
     id="rect4"
     style="fill:#e5e5e5;fill-opacity:1;stroke-width:0.875596"
     ry="1.5" />
  <path
     d="M131 29.5a2.5 2.5 0 0 1-2.5 2.5h-17a2.5 2.5 0 1 1 0-5h17a2.5 2.5 0 0 1 2.5 2.5ZM131 51.5a2.5 2.5 0 0 1-2.5 2.5h-8a2.5 2.5 0 1 1 0-5h8a2.5 2.5 0 0 1 2.5 2.5Z"
     fill="#D3E3FD"
     id="path6"
     style="fill:#2563eb;fill-opacity:1" />
  <path
     d="M 42,18.5 A 2.5,2.5 0 0 1 44.5,16 h 17 a 2.5,2.5 0 0 1 0,5 h -17 A 2.5,2.5 0 0 1 42,18.5 Z"
     fill="#E8EAED"
     id="path8"
     style="fill:#e5e5e5;fill-opacity:1" />
  <rect
     x="13"
     y="21"
     width="9"
     height="2"
     rx="1"
     fill="#E8EAED"
     id="rect12"
     style="fill:#e5e5e5;fill-opacity:1" />
  <rect
     x="13"
     y="24"
     width="18"
     height="2"
     fill="#E8EAED"
     id="rect14"
     style="fill:#e5e5e5;fill-opacity:1"
     rx="1" />
  <circle
     cx="9.5"
     cy="23.5"
     r="2.5"
     fill="#E8EAED"
     id="circle16"
     style="fill:#e5e5e5;fill-opacity:1" />
  <path
     d="M 42,40.5 A 2.5,2.5 0 0 1 44.5,38 h 10 a 2.5,2.5 0 0 1 0,5 h -10 A 2.5,2.5 0 0 1 42,40.5 Z"
     fill="#E8EAED"
     id="path18"
     style="fill:#e5e5e5;fill-opacity:1" />
  <path
     d="M 42,62.5 A 2.5,2.5 0 0 1 44.5,60 h 22 a 2.5,2.5 0 0 1 0,5 h -22 A 2.5,2.5 0 0 1 42,62.5 Z"
     fill="#E8EAED"
     id="path22"
     style="fill:#e5e5e5;fill-opacity:1" />
  <rect
     x="13"
     y="34"
     width="9"
     height="2"
     rx="1"
     fill="#E8EAED"
     id="rect26"
     style="fill:#e5e5e5;fill-opacity:1" />
  <rect
     x="13"
     y="37"
     width="18"
     height="2"
     rx="1"
     fill="#E8EAED"
     id="rect28"
     style="fill:#e5e5e5;fill-opacity:1" />
  <circle
     cx="9.5"
     cy="36.5"
     r="2.5"
     fill="#E8EAED"
     id="circle30"
     style="fill:#e5e5e5;fill-opacity:1" />
  <rect
     x="13"
     y="47"
     width="9"
     height="2"
     rx="1"
     fill="#E8EAED"
     id="rect32"
     style="fill:#e5e5e5;fill-opacity:1" />
  <rect
     x="13"
     y="50"
     width="18"
     height="2"
     rx="1"
     fill="#E8EAED"
     id="rect34"
     style="fill:#e5e5e5;fill-opacity:1" />
  <circle
     cx="9.5"
     cy="49.5"
     r="2.5"
     fill="#E8EAED"
     id="circle36"
     style="fill:#e5e5e5;fill-opacity:1" />
  <rect
     x="13"
     y="60"
     width="9"
     height="2"
     rx="1"
     fill="#E8EAED"
     id="rect38"
     style="fill:#e5e5e5;fill-opacity:1" />
  <rect
     x="13"
     y="63"
     width="18"
     height="2"
     rx="1"
     fill="#E8EAED"
     id="rect40"
     style="fill:#e5e5e5;fill-opacity:1" />
  <circle
     cx="9.5"
     cy="62.5"
     r="2.5"
     fill="#E8EAED"
     id="circle42"
     style="fill:#e5e5e5;fill-opacity:1" />
  <path
     d="m 37,0 c 0,0 0,6.3478261 0,9.5217391 C 37,31.681159 37,76 37,76"
     stroke="#f2f2f2"
     id="path44"
     sodipodi:nodetypes="csc"
     style="stroke:#e5e5e5;stroke-opacity:1" />
</svg>
